<?xml version="1.0" encoding="utf-8" ?><svg xmlns="http://www.w3.org/2000/svg" xmlns:xlink="http://www.w3.org/1999/xlink" width="139" height="134" viewBox="0 0 139 134"><path fill="#1A1814" d="M86.1422 3.68957C88.282 5.52458 85.7233 41.2878 84.6249 46.2863C87.0856 43.191 92.5854 37.9143 95.5753 34.6888C98.3666 31.6875 101.128 28.6591 103.861 25.6038C105.857 23.3629 109.283 19.199 111.524 17.6005C109.89 24.9148 104.034 35.1376 99.5475 41.1242C97.8127 43.4391 94.9825 46.5346 93.0098 48.744C97.8858 47.4818 104.958 46.4324 110.143 45.3294C118.559 43.4966 126.903 41.3463 135.157 38.8833C133.263 46.9724 127.978 55.0247 123.391 61.9111C121.213 65.1813 117.946 66.2608 114.3 67.0966C110.079 68.0646 105.579 69.6204 101.27 70.196C103.698 72.2868 107.619 76.9294 109.869 79.4725C112.293 82.2119 116.263 86.4152 118.326 89.2467C116.571 97.12 107.609 108.413 102.693 115.108C97.8417 109.489 92.9208 103.931 87.931 98.4353C84.2011 94.3068 80.371 89.9485 76.445 86.0264C75.4075 90.7715 72.8786 97.3303 71.606 102.169C71.4871 102.621 72.4099 102.535 72.9813 103.905C72.9204 107.041 63.2036 123.391 60.6661 126.588C59.9805 127.452 58.3531 129.191 57.1064 129.185C56.293 129.182 56.1368 129.24 55.5688 128.755C55.3902 126.64 59.2841 115.947 60.113 113.235C61.242 109.529 62.2988 105.801 63.2828 102.053C65.0774 94.6835 66.8251 87.2283 67.903 79.707C68.055 78.6466 68.2546 77.7285 67.5351 76.9284C65.5431 76.7979 62.4042 80.5889 60.8696 82.0686C57.8677 84.9636 54.8465 87.8385 51.8063 90.6933C43.6233 98.1821 35.2477 105.458 26.6879 112.513C24.02 114.693 6.56037 129.073 5.02535 128.918C3.90333 127.134 7.62568 121.014 8.63692 119.087C10.9159 115.134 12.9844 109.711 16.0503 106.303C20.0807 101.823 26.175 97.9093 30.9283 94.1483C37.4481 88.9283 43.893 83.6154 50.2612 78.2115C44.8904 78.8037 39.4463 78.8518 34.0494 79.0162C30.6486 79.1199 26.9577 79.5135 23.5814 79.0286C22.1959 78.8296 20.801 78.4224 19.679 77.5535C18.7254 76.8149 18.1522 75.7235 18.0157 74.5316C17.3308 68.5481 28.7496 52.1576 32.5425 47.4014C29.2573 43.479 26.268 41.2206 22.9795 36.6722C24.2613 28.7335 32.8033 16.7845 38.1026 10.3438C44.3672 17.5466 49.0285 22.3701 56.5052 28.4499C61.0504 32.1459 67.1147 36.5972 71.256 40.5264C71.1951 37.1374 71.0141 33.6786 71.1912 30.2942C71.5027 24.3437 81.648 7.735 86.1422 3.68957Z"/></svg>